<?xml version="1.0" standalone="no"?>
<!DOCTYPE svg PUBLIC "-//W3C//DTD SVG 20010904//EN"
 "http://www.w3.org/TR/2001/REC-SVG-20010904/DTD/svg10.dtd">
<svg version="1.0" xmlns="http://www.w3.org/2000/svg"
 width="512.000000pt" height="512.000000pt" viewBox="0 0 512.000000 512.000000"
 preserveAspectRatio="xMidYMid meet">

<g transform="translate(0.000000,512.000000) scale(0.100000,-0.100000)"
fill="#000000" stroke="none">
<path d="M2005 3769 c-156 -16 -323 -63 -447 -125 -37 -19 -72 -34 -78 -34 -6
0 -10 30 -10 75 l0 75 -322 -2 -323 -3 -3 -1182 -2 -1183 325 0 325 0 0 738 0
737 32 55 c38 68 155 184 230 228 143 85 267 115 447 110 l114 -3 55 -132 56
-131 56 28 c176 88 413 149 610 157 193 8 295 -22 383 -112 54 -56 76 -111 84
-212 l6 -73 -374 0 c-206 0 -405 -5 -444 -10 -367 -53 -600 -240 -661 -530
-24 -111 -15 -301 19 -397 83 -241 269 -413 517 -480 100 -27 394 -23 510 7
155 40 299 121 400 224 24 25 47 46 50 46 4 0 5 -58 2 -130 l-5 -130 372 0
371 0 0 738 c0 734 -6 892 -35 1007 -72 277 -250 461 -540 560 -229 78 -596
82 -927 12 -96 -21 -111 -22 -140 -9 -67 28 -256 71 -362 81 -122 12 -174 12
-291 0z m1555 -1498 c0 -102 -2 -112 -32 -170 -90 -174 -289 -270 -503 -243
-165 22 -255 99 -271 235 -12 106 23 195 95 240 66 41 112 46 419 46 l292 1 0
-109z"/>
</g>
</svg>
